# xmcd
#
# Track frame offsets: 
#        150
#        14538
#        27932
#        39863
#        53561
#        66640
#        79273
#        91928
#        106863
#        117760
#        133566
#        147992
#        162155
#        175679
#        190898
#        205570
#        220070
#        234654
#        248522
#        262246
#        276154
#        290152
#        304682
#        319881
#        327838
#
# Disc length: 4488 seconds
#
# Revision: 0
# Processed by: cddbd v1.5.2PL0 Copyright (c) Steve Scherf et al.
# Submitted via: ExactAudioCopy v0.95b3
#
DISCID=66118619
DTITLE=Billie Holiday  - Volume 11 1941-1942 Complete Edition
DYEAR=1900
DGENRE=
TTITLE0=I'm In A Low-Down Groove
TTITLE1=God Bless The Child
TTITLE2=God Bless The Child
TTITLE3=God Bless The Child
TTITLE4=Am I Blue-
TTITLE5=Am I Blue-
TTITLE6=Am I Blue-
TTITLE7=Solitude
TTITLE8=I Cried For You
TTITLE9=Fine And Mellow
TTITLE10=Jim
TTITLE11=Jim
TTITLE12=I Cover The Waterfront
TTITLE13=Love Me Or Leave Me
TTITLE14=Gloomy Sunday
TTITLE15=Gloomy Sunday
TTITLE16=Gloomy Sunday
TTITLE17=Wherever You Are
TTITLE18=Wherever You Are
TTITLE19=Mandy Is Two
TTITLE20=It'S A Sin To Tell A Lie
TTITLE21=Until The Real Thing Comes Along
TTITLE22=Until The Real Thing Comes Along
TTITLE23=I Hear Music
TTITLE24=Solitude
EXTD=
EXTT0=
EXTT1=
EXTT2=
EXTT3=
EXTT4=
EXTT5=
EXTT6=
EXTT7=
EXTT8=
EXTT9=
EXTT10=
EXTT11=
EXTT12=
EXTT13=
EXTT14=
EXTT15=
EXTT16=
EXTT17=
EXTT18=
EXTT19=
EXTT20=
EXTT21=
EXTT22=
EXTT23=
EXTT24=
PLAYORDER=
